<svg viewBox="0 0 512 512" xmlns="http://www.w3.org/2000/svg">
    <path d="M256.00,50.24C258.47,48.34 260.94,46.44 263.41,44.54C321.34,0.00 403.32,5.33 455.00,57.00C506.67,108.68 512.00,190.66 467.46,248.59C465.56,251.06 463.66,253.53 461.76,256.00C463.66,258.47 465.56,260.94 467.46,263.41C512.00,321.34 506.67,403.32 455.00,455.00C403.32,506.67 321.34,512.00 263.41,467.46C260.94,465.56 258.47,463.66 256.00,461.76C253.53,463.66 251.06,465.56 248.59,467.46C190.66,512.00 108.68,506.67 57.00,455.00C5.33,403.32 0.00,321.34 44.54,263.41C46.44,260.94 48.34,258.47 50.24,256.00C48.34,253.53 46.44,251.06 44.54,248.59C0.00,190.66 5.33,108.68 57.00,57.00C108.68,5.33 190.66,0.00 248.59,44.54C251.06,46.44 253.53,48.34 256.00,50.24Z"/>
</svg>