<svg viewBox="0 0 512 512" xmlns="http://www.w3.org/2000/svg">
    <path d="M256.00,7.25C274.68,7.25 293.36,13.96 308.16,27.38C323.21,41.04 343.01,48.24 363.32,47.46C403.25,45.91 437.82,74.93 443.23,114.51C445.99,134.65 456.52,152.90 472.58,165.35C504.16,189.83 512.00,234.28 490.70,268.08C479.87,285.28 476.21,306.03 480.51,325.89C488.96,364.94 466.39,404.03 428.35,416.24C409.00,422.44 392.85,435.99 383.38,453.97C364.75,489.32 322.34,504.75 285.35,489.65C266.54,481.96 245.46,481.96 226.65,489.65C189.66,504.75 147.25,489.32 128.62,453.97C119.15,435.99 103.00,422.44 83.65,416.24C45.61,404.03 23.04,364.94 31.49,325.89C35.79,306.03 32.13,285.28 21.30,268.08C0.00,234.28 7.84,189.83 39.42,165.35C55.48,152.90 66.01,134.65 68.77,114.51C74.18,74.93 108.75,45.91 148.68,47.46C168.99,48.24 188.79,41.04 203.84,27.38C218.64,13.96 237.32,7.25 256.00,7.25Z"/>
</svg>